<svg width="47" height="48" viewBox="0 0 47 48" fill="none" xmlns="http://www.w3.org/2000/svg">
<rect y="1" width="47" height="47" rx="11" fill="#121212"/>
<path d="M11.75 36.4436L10.2617 35.1076L12.6194 38.2447L11.75 36.4436ZM35.72 24.8733L37.4438 25.8875L40.7859 20.2072L34.8506 23.0721L35.72 24.8733ZM26.7495 36.1759L25.7353 37.8996L29.1828 39.928L30.197 38.2043L26.7495 36.1759ZM33.8619 11.8101L35.3502 13.146L38.3447 9.81006H33.8619V11.8101ZM31.75 9.81006L11.75 0.263053V23.3571L31.75 13.8101V9.81006ZM12.6194 38.2447L36.5894 26.6744L34.8506 23.0721L10.8806 34.6424L12.6194 38.2447ZM33.9962 23.8591L26.7495 36.1759L30.197 38.2043L37.4438 25.8875L33.9962 23.8591ZM13.2383 37.7796L35.3502 13.146L32.3735 10.4741L10.2617 35.1076L13.2383 37.7796ZM33.8619 9.81006H29.75V13.8101H33.8619V9.81006Z" fill="white"/>
</svg>
