<svg width="101" height="101" viewBox="0 0 101 101" fill="none" xmlns="http://www.w3.org/2000/svg">
<path fill-rule="evenodd" clip-rule="evenodd" d="M50.5 88.375C71.4178 88.375 88.375 71.4178 88.375 50.5C88.375 29.5822 71.4178 12.625 50.5 12.625C29.5822 12.625 12.625 29.5822 12.625 50.5C12.625 71.4178 29.5822 88.375 50.5 88.375ZM53.5 27.3542C53.5 25.6973 52.1569 24.3542 50.5 24.3542C48.8431 24.3542 47.5 25.6973 47.5 27.3542V50.25C47.5 52.0449 48.9551 53.5 50.75 53.5H65.2292C66.886 53.5 68.2292 52.1569 68.2292 50.5C68.2292 48.8431 66.886 47.5 65.2292 47.5H53.5V27.3542Z" fill="white"/>
</svg>
