<svg width="91" height="91" viewBox="0 0 91 91" fill="none" xmlns="http://www.w3.org/2000/svg">
<path fill-rule="evenodd" clip-rule="evenodd" d="M79.4092 45.5C79.4092 45.1722 79.2237 44.9197 78.8527 44.4146C75.5276 39.8882 61.8579 22.75 45.5 22.75C29.1421 22.75 15.4724 39.8882 12.1473 44.4146C11.7763 44.9197 11.5908 45.1722 11.5908 45.5C11.5908 45.8278 11.7763 46.0803 12.1473 46.5854C15.4724 51.1118 29.1421 68.25 45.5 68.25C61.8579 68.25 75.5276 51.1118 78.8527 46.5854C79.2237 46.0803 79.4092 45.8278 79.4092 45.5ZM45.5 56.875C51.7823 56.875 56.875 51.7822 56.875 45.5C56.875 39.2178 51.7823 34.125 45.5 34.125C39.2178 34.125 34.125 39.2178 34.125 45.5C34.125 51.7822 39.2178 56.875 45.5 56.875Z" fill="white"/>
</svg>
